<?xml version="1.0" standalone="no"?>
<!DOCTYPE svg PUBLIC "-//W3C//DTD SVG 20010904//EN"
 "http://www.w3.org/TR/2001/REC-SVG-20010904/DTD/svg10.dtd">
<svg version="1.0" xmlns="http://www.w3.org/2000/svg"
 width="200.000000pt" height="200.000000pt" viewBox="0 0 200.000000 200.000000"
 preserveAspectRatio="xMidYMid meet">
<metadata>
Created by potrace 1.11, written by Peter Selinger 2001-2013
</metadata>
<g transform="translate(0.000000,200.000000) scale(0.100000,-0.100000)"
fill="#000000" stroke="none">
<path d="M819 1896 c-2 -2 -44 -6 -94 -10 -49 -4 -99 -8 -110 -10 -11 -2 -44
-7 -72 -11 -45 -6 -53 -10 -53 -29 0 -52 -100 -156 -151 -156 -10 0 -22 -8
-27 -17 -10 -20 -8 -529 2 -638 12 -127 17 -169 27 -230 26 -153 71 -266 136
-336 85 -92 263 -220 436 -314 l86 -46 63 32 c63 32 256 151 293 181 164 134
202 175 241 256 30 63 70 234 80 342 3 41 8 89 10 105 6 47 12 626 6 647 -2
10 -7 16 -11 14 -9 -6 -81 29 -108 52 -31 27 -63 83 -63 110 0 16 -6 22 -22
24 -13 0 -27 2 -33 3 -5 1 -39 5 -75 9 -36 5 -74 10 -85 13 -25 6 -470 14
-476 9z"/>
</g>
</svg>
